<svg width="512" height="512" viewBox="0 0 512 512" fill="none" xmlns="http://www.w3.org/2000/svg">
<path d="M461 256C461 377.503 369.218 476 256 476C142.782 476 51 377.503 51 256C51 134.497 142.782 36 256 36C369.218 36 461 134.497 461 256Z" fill="black"/>
<path d="M303.869 186.598C297.739 186.598 292.599 185.709 288.446 183.931C284.294 181.955 280.933 179.387 278.363 176.226C275.792 173.065 273.914 169.608 272.727 165.855C271.541 161.903 270.948 157.853 270.948 153.705C270.948 148.371 271.245 143.234 271.838 138.295C272.629 133.356 272.727 128.911 272.134 124.96C271.739 121.009 270.256 117.848 267.685 115.477C265.115 113.107 260.567 111.921 254.043 111.921C247.122 111.921 239.806 113.897 232.095 117.848C224.384 121.799 217.365 128.022 211.038 136.517C204.71 145.012 199.471 155.977 195.319 169.411C191.166 182.647 189.09 198.649 189.09 217.417C189.09 238.161 190.969 257.126 194.725 274.314C198.68 291.304 204.513 305.824 212.224 317.875C219.935 329.926 229.525 339.31 240.993 346.027C252.461 352.546 265.906 355.806 281.328 355.806C288.249 355.806 294.774 355.016 300.903 353.435C307.23 351.855 313.162 349.682 318.698 346.916C324.234 344.15 329.474 340.989 334.417 337.433C339.558 333.68 344.501 329.728 349.247 325.58L356.661 332.692C352.114 338.816 346.281 345.533 339.163 352.843C332.045 360.152 323.444 367.067 313.36 373.586C303.276 379.908 291.511 385.242 278.066 389.588C264.621 393.737 249.297 395.811 232.095 395.811C214.893 395.811 198.087 392.552 181.676 386.032C165.462 379.315 151.028 369.635 138.374 356.991C125.72 344.348 115.537 329.037 107.826 311.059C100.312 292.884 96.5556 272.239 96.5556 249.125C96.5556 231.147 98.8294 214.651 103.377 199.637C107.925 184.425 114.054 170.695 121.765 158.446C129.674 146.198 138.77 135.431 149.051 126.145C159.531 116.86 170.504 109.156 181.972 103.031C193.44 96.7094 205.106 91.968 216.969 88.8071C229.03 85.6462 240.597 84.0657 251.67 84.0657C266.301 84.0657 279.055 85.745 289.929 89.1034C300.804 92.4619 309.801 96.907 316.919 102.439C324.234 107.97 329.672 114.391 333.231 121.7C336.79 128.813 338.569 136.221 338.569 143.926C338.569 149.655 337.779 155.186 336.197 160.52C334.813 165.657 332.638 170.201 329.672 174.152C326.904 177.906 323.345 180.968 318.995 183.338C314.645 185.511 309.603 186.598 303.869 186.598Z" fill="white"/>
</svg>
